<?xml version="1.0" encoding="utf-8"?>
<!-- Generator: Adobe Illustrator 18.1.1, SVG Export Plug-In . SVG Version: 6.00 Build 0)  -->
<!DOCTYPE svg PUBLIC "-//W3C//DTD SVG 1.1//EN" "http://www.w3.org/Graphics/SVG/1.1/DTD/svg11.dtd">
<svg version="1.1" id="Layer_1" xmlns="http://www.w3.org/2000/svg" xmlns:xlink="http://www.w3.org/1999/xlink" x="0px" y="0px"
	 viewBox="0 0 592.2 209.6" enable-background="new 0 0 592.2 209.6" xml:space="preserve">
<g>
	<g>
		<g>
			<g>
				<path fill="#2B2622" d="M133.5,120.7c-24.1,0-43.8,19.6-43.8,43.8c0,24.1,19.6,43.8,43.8,43.8c24.1,0,43.8-19.6,43.8-43.8
					C177.2,140.4,157.6,120.7,133.5,120.7z M133.5,199.6c-19.4,0-35.2-15.8-35.2-35.1c0-19.4,15.8-35.1,35.2-35.1
					c19.4,0,35.2,15.8,35.2,35.1C168.6,183.9,152.8,199.6,133.5,199.6z"/>
				<path fill="#2B2622" d="M510.7,165.1c-2.4-1.2-16.6-8.6-18.7-9.7c-7.5-3.8-10.1-7.2-10.1-12.9c0-8,6.5-13.1,16.7-13.1
					c6,0,11.7,2.6,15.1,4.5c0.6,0.3,1.3,0.5,2.1,0.5c2.4,0,4.3-1.9,4.3-4.3c0-1.6-0.9-3-2.2-3.7c-4.3-2.4-11.5-5.6-19.3-5.6
					c-14.9,0-25.3,8.9-25.3,21.7c0,11.5,7.5,16.9,14.9,20.7c2.1,1.1,16.5,8.5,18.7,9.6c5.7,3,8.9,7.5,8.9,12.6
					c0,6.9-5.9,14.3-16.7,14.3c-10.5,0-18.7-7.1-21-9.2l-0.7-0.6l-6.4,5.8l0.8,0.7c2.8,2.8,13.2,12,27.3,12
					c15.8,0,25.3-11.6,25.3-22.9C524.4,177,519.4,169.6,510.7,165.1z"/>
				<path fill="#2B2622" d="M43.7,129.4c9.4,0,18.2,3.7,24.9,10.3c1.6,1.6,4.5,1.6,6.1,0c0.8-0.8,1.3-1.9,1.3-3c0-1.1-0.4-2.2-1.3-3
					l-0.5-0.5c-8.2-7.9-19-12.3-30.4-12.3C19.6,120.7,0,140.4,0,164.5c0,24.1,19.6,43.8,43.7,43.8c12.7,0,24.2-5.5,32.2-14.2
					l-6.1-6.1c-6.4,7.2-15.8,11.7-26.1,11.7c-19.4,0-35.1-15.8-35.1-35.1C8.6,145.1,24.4,129.4,43.7,129.4z"/>
				<path fill="#2B2622" d="M340.4,129.4c9.4,0,18.2,3.7,24.9,10.3c1.6,1.6,4.5,1.6,6.1,0c0.8-0.8,1.3-1.9,1.3-3
					c0-1.1-0.4-2.2-1.3-3l-0.5-0.5c-8.2-7.9-19-12.3-30.4-12.3c-24.1,0-43.8,19.6-43.8,43.8c0,24.1,19.6,43.8,43.8,43.8
					c12.7,0,24.2-5.5,32.2-14.2l-6.1-6.1c-6.4,7.2-15.8,11.7-26.1,11.7c-19.4,0-35.2-15.8-35.2-35.1
					C305.2,145.1,321,129.4,340.4,129.4z"/>
				<path fill="#2B2622" d="M266.3,120.7c-1.6,0-2.9,1-3.6,2.4c-0.7,1.3-25.7,63.3-25.7,63.3c0,0-25-61.9-25.7-63.3
					c-0.7-1.3-2-2.4-3.6-2.4c-1.9,0-3.3,1.4-3.8,3.1c-0.5,1.8-14.6,79.7-14.6,79.7c0,0.3-0.1,0.5-0.1,0.8c0,2.1,1.7,3.9,3.9,3.9
					c1.9,0,3.5-1.4,3.8-3.1l12.2-66.7c0,0,23.6,58.3,24.3,59.7c0.7,1.4,2,2.5,3.6,2.5c1.6,0,2.9-1.1,3.6-2.5
					c0.7-1.4,24.3-59.7,24.3-59.7l12.7,69.4h7.9c0,0-14.9-82.1-15.4-83.9C269.6,122.1,268.1,120.7,266.3,120.7z"/>
				<path fill="#2B2622" d="M421.8,120.7c-1.6,0-2.9,1.1-3.6,2.5c-0.7,1.4-32.4,79.7-32.4,79.7c-0.2,0.5-0.3,1-0.3,1.5
					c0,2.1,1.7,3.9,3.9,3.9c1.6,0,3-1,3.6-2.5l12.3-30.3h33l13.1,32.2h8.4c0,0-33.7-83.2-34.4-84.6
					C424.7,121.8,423.5,120.7,421.8,120.7z M408.8,166.9l13-32l13,32H408.8z"/>
				<path fill="#2B2622" d="M592.2,125.5c0-2.4-1.9-4.3-4.3-4.3h-48.7c-2.4,0-4.3,1.9-4.3,4.3c0,2.4,1.9,4.3,4.3,4.3h20.4v78h7.9
					v-78h20.4C590.2,129.8,592.2,127.9,592.2,125.5z"/>
			</g>
		</g>
	</g>
	<g>
		<path fill="#7D77B7" d="M329.7,9.8c2.6,5.2,1.1,11.9-1.6,16.6l-20.7,46.5l-0.2,0.2l-7.5-47.2c-0.6-4.5,4.2-6.5,7.1-8.6
			c-0.1-0.7-0.9-0.6-1.3-0.9l-7-0.1l-0.2-0.2c0-5.9,3.2-11.3,8.5-14.1c5.6-3.2,13.5-2.4,18.3,1.8C327.1,5.5,328.7,7.5,329.7,9.8z"/>
		<path fill="#CE1141" d="M291.6,8.2c1.7,3.1,2.7,6.7,2.1,10.6l-8.4,54c0,0.1,0,0.1-0.1,0.2l-2.2-4.4l-21.1-47.2
			c-2-6.1-0.1-12.4,4.3-16.8c4.5-4.5,11.8-5.8,17.6-3.3C286.8,2.7,289.7,5.2,291.6,8.2z"/>
		<path fill="#009DDD" d="M360.3,31c2.8,4.8,2.2,12.2-0.9,16.7c-2,3.2-5.2,4.7-7.9,6.8l-43.8,30.1h-0.1l0.5-1.4l23.2-52.4
			c3.5-6.2,10.1-9.3,17.1-8.4C353.1,23.2,357.9,26.3,360.3,31z"/>
		<path fill="#F47A3F" d="M260.8,30.7l24.2,53.8h-0.4l-48.7-33.6c-5-4.2-7-10.4-5.3-16.8c1.3-4.7,5.2-9.2,9.9-10.9
			C248.1,20.5,256.7,23.5,260.8,30.7z"/>
		<path fill="#62BB46" d="M373,69c2.4,5.1,1.5,12.2-2,16.5c-3.4,4.2-8,6.5-13.5,6.3l-51.9,0l43.5-30.3c4.3-2.7,10.7-3.2,15.3-1
			C368,61.9,371.4,65.5,373,69z"/>
		<path fill="#FEBE10" d="M219.2,69c-2.4,5.1-1.5,12.2,2,16.5c3.4,4.2,8,6.5,13.5,6.3l51.9,0l-43.5-30.3c-4.2-2.7-10.7-3.2-15.3-1
			C224.1,61.9,220.8,65.5,219.2,69z"/>
	</g>
</g>
</svg>
